<svg id="Capa_1" stroke='white' fill='white' enable-background="new 0 0 512 512" height="512" viewBox="0 0 512 512" width="512" xmlns="http://www.w3.org/2000/svg"><g><path d="m437.245 438.375c-4.878-2.717-11.039-.966-13.758 3.915-17.257 30.984-50.447 49.482-88.782 49.482-24.469 0-46.811-6.889-64.058-19.544 19.576-21.974 29.869-50.706 29.869-83.754 0-34.568-8.338-60.556-24.815-77.482 26.051-6.836 55.102 3.776 55.434 3.901 2.171.819 4.554.867 6.755.136.406-.135 40.943-13.283 69.648 3.522 13.958 8.171 23.02 22.574 26.934 42.809.935 4.835 5.171 8.195 9.92 8.195.637 0 1.283-.061 1.932-.186 5.484-1.061 9.07-6.367 8.009-11.851-5.069-26.199-17.374-45.183-36.574-56.423-25.697-15.043-56.924-11.853-73.883-8.409-2.533-109.419-32.687-167.499-56-196.25 9.609 2.367 20.477 4.068 31.873 4.068 9.247 0 18.843-1.121 28.39-3.913 47.212-13.81 73.321-62.675 74.409-64.749 2.532-4.824.788-10.787-3.945-13.486-2.035-1.16-50.364-28.253-97.574-14.442-33.642 9.841-56.564 37.477-67.358 53.303-10.794-15.826-33.716-43.462-67.358-53.303-47.214-13.812-95.539 13.281-97.574 14.441-4.733 2.699-6.477 8.662-3.945 13.486 1.088 2.074 27.197 50.939 74.409 64.749 9.55 2.794 19.141 3.914 28.39 3.913 23.837-.001 45.368-7.444 57.882-12.86-3.076 69.437-21.57 120.532-36.84 151.533-17.065 34.644-34.984 53.595-35.308 54.071-16.597-4.5-53.54-11.113-82.024 8.585-23.182 16.03-34.935 45.18-34.935 86.641 0 85.329 61.312 123.523 122.075 123.523 28.909 0 55.946-9.074 77.233-25.725 21.12 16.648 48.82 25.729 79.029 25.729 45.779 0 85.575-22.38 106.454-59.868 2.719-4.88.966-11.039-3.914-13.757zm-110.536-415.047c27.83-8.139 57.574 1.719 72.37 8.058-9.052 13.321-28.794 37.65-56.619 45.79-27.828 8.141-57.572-1.718-72.37-8.058 9.052-13.322 28.793-37.651 56.619-45.79zm-161.826 53.848c-27.843-8.144-47.592-32.499-56.634-45.81 14.758-6.354 44.424-16.215 72.385-8.037 27.843 8.144 47.592 32.499 56.634 45.81-14.758 6.354-44.424 16.215-72.385 8.037zm61.432 171.881c15.389-30.994 33.84-80.862 38.645-147.947 6.222 6.441 13.861 15.882 21.507 29.176 28.092 48.832 35.882 113.108 37.152 161.489-16.435-3.685-43.844-6.77-67.634 5.108-18.193-8.714-38.341-8.993-54.009-7.064 6.8-9.43 15.517-22.994 24.339-40.762zm-149.719 139.417c0-34.378 8.797-57.915 26.144-69.956 10.804-7.499 23.808-9.823 35.784-9.823 19.395 0 36.09 6.098 36.349 6.195 2.268.855 4.765.869 7.04.037.109-.04 11.062-3.994 25.852-5.383 13.154-1.235 31.891-.561 46.502 9.658 17.266 12.076 26.021 35.382 26.021 69.272 0 31.145-10.597 57.551-30.647 76.365-18.506 17.366-43.792 26.929-71.199 26.929-46.981 0-101.846-27.052-101.846-103.294z"/><ellipse cx="445.632" cy="404.459" rx="9.999" ry="9.999" transform="matrix(.967 -.256 .256 .967 -88.803 127.774)"/></g></svg>