<?xml version="1.0" encoding="UTF-8"?>
<svg xmlns="http://www.w3.org/2000/svg" stroke='white' fill='white' width="512" height="512" viewBox="0 0 128 128"><g><path d="M64,0a64,64,0,1,0,64,64A64.072,64.072,0,0,0,64,0Zm0,124.5A60.5,60.5,0,1,1,124.5,64,60.569,60.569,0,0,1,64,124.5Z"/><path d="M20.678,60.75H51.929a1.749,1.749,0,0,0,1.237-2.987L31.083,35.68a5.761,5.761,0,0,0-4.667-1.661,5.662,5.662,0,0,0-4.176,2.52,49.54,49.54,0,0,0-7.206,17.324,5.683,5.683,0,0,0,1.17,4.758A5.743,5.743,0,0,0,20.678,60.75Zm-2.216-6.178a46.036,46.036,0,0,1,6.7-16.105,2.149,2.149,0,0,1,1.608-.966A2.292,2.292,0,0,1,27,37.489a2.268,2.268,0,0,1,1.606.665l19.1,19.1H20.678a2.265,2.265,0,0,1-1.761-.839A2.2,2.2,0,0,1,18.462,54.572Z"/><path d="M68.33,53.547a1.75,1.75,0,0,0,1.907-.38L92.321,31.083a5.753,5.753,0,0,0,1.661-4.667,5.669,5.669,0,0,0-2.52-4.178,49.568,49.568,0,0,0-17.325-7.206A5.675,5.675,0,0,0,69.379,16.2a5.75,5.75,0,0,0-2.129,4.476V51.93A1.751,1.751,0,0,0,68.33,53.547Zm2.42-32.871a2.265,2.265,0,0,1,.839-1.762,2.212,2.212,0,0,1,1.394-.5,2.241,2.241,0,0,1,.445.046,46.029,46.029,0,0,1,16.106,6.7,2.147,2.147,0,0,1,.965,1.61,2.262,2.262,0,0,1-.653,1.838l-19.1,19.1Z"/><path d="M53.546,68.33a1.751,1.751,0,0,0-1.617-1.08H20.679A5.75,5.75,0,0,0,16.2,69.379a5.682,5.682,0,0,0-1.168,4.758,49.538,49.538,0,0,0,7.206,17.322,5.662,5.662,0,0,0,4.177,2.52,5.848,5.848,0,0,0,.591.03,5.749,5.749,0,0,0,4.076-1.691l22.08-22.081A1.749,1.749,0,0,0,53.546,68.33ZM28.611,89.844a2.276,2.276,0,0,1-1.839.653,2.151,2.151,0,0,1-1.609-.966,46.055,46.055,0,0,1-6.7-16.1,2.2,2.2,0,0,1,.455-1.839,2.263,2.263,0,0,1,1.761-.839H47.705Z"/><path d="M58.621,16.2a5.689,5.689,0,0,0-4.758-1.168,49.552,49.552,0,0,0-17.325,7.206,5.669,5.669,0,0,0-2.52,4.178,5.753,5.753,0,0,0,1.661,4.667L57.763,53.167A1.749,1.749,0,0,0,60.75,51.93V20.676A5.75,5.75,0,0,0,58.621,16.2ZM57.25,47.705l-19.1-19.1A2.266,2.266,0,0,1,37.5,26.77a2.151,2.151,0,0,1,.966-1.61,46.029,46.029,0,0,1,16.106-6.7h0a2.153,2.153,0,0,1,.444-.046,2.212,2.212,0,0,1,1.394.5,2.265,2.265,0,0,1,.839,1.762Z"/><path d="M59.67,74.453a1.752,1.752,0,0,0-1.907.38L35.682,96.913a5.758,5.758,0,0,0-1.66,4.668,5.666,5.666,0,0,0,2.52,4.177,49.529,49.529,0,0,0,17.321,7.2,5.682,5.682,0,0,0,4.758-1.168,5.75,5.75,0,0,0,2.129-4.476V76.07A1.751,1.751,0,0,0,59.67,74.453Zm-2.42,32.865a2.264,2.264,0,0,1-.839,1.762,2.2,2.2,0,0,1-1.839.454,46.035,46.035,0,0,1-16.1-6.7,2.151,2.151,0,0,1-.966-1.608,2.271,2.271,0,0,1,.653-1.84L57.25,80.3Z"/><path d="M74.454,59.67a1.751,1.751,0,0,0,1.617,1.08h31.251a5.743,5.743,0,0,0,4.474-2.129,5.683,5.683,0,0,0,1.17-4.758,49.557,49.557,0,0,0-7.2-17.324,5.666,5.666,0,0,0-4.177-2.52,5.778,5.778,0,0,0-4.668,1.661L74.833,57.763A1.75,1.75,0,0,0,74.454,59.67ZM99.391,38.154a2.271,2.271,0,0,1,1.84-.653,2.149,2.149,0,0,1,1.608.966,46.036,46.036,0,0,1,6.7,16.105,2.2,2.2,0,0,1-.456,1.839,2.261,2.261,0,0,1-1.76.839H80.3Z"/><path d="M107.321,67.25H76.071a1.75,1.75,0,0,0-1.238,2.987L96.914,92.318a5.749,5.749,0,0,0,4.076,1.691,5.862,5.862,0,0,0,.591-.03,5.664,5.664,0,0,0,4.177-2.52,49.538,49.538,0,0,0,7.206-17.322,5.685,5.685,0,0,0-1.168-4.758A5.75,5.75,0,0,0,107.321,67.25Zm2.216,6.178a46.055,46.055,0,0,1-6.7,16.1,2.151,2.151,0,0,1-1.609.966,2.268,2.268,0,0,1-1.839-.653L80.3,70.75h27.026a2.261,2.261,0,0,1,1.76.839A2.2,2.2,0,0,1,109.537,73.428Z"/><path d="M70.237,74.833A1.749,1.749,0,0,0,67.25,76.07v31.248a5.75,5.75,0,0,0,2.129,4.476,5.682,5.682,0,0,0,4.758,1.168,49.529,49.529,0,0,0,17.321-7.2,5.666,5.666,0,0,0,2.52-4.177,5.756,5.756,0,0,0-1.661-4.668Zm19.293,28a46.032,46.032,0,0,1-16.1,6.7,2.189,2.189,0,0,1-1.838-.454,2.264,2.264,0,0,1-.839-1.762V80.3L89.842,99.388a2.269,2.269,0,0,1,.654,1.84A2.151,2.151,0,0,1,89.53,102.836Z"/></g></svg>
