<?xml version="1.0" encoding="iso-8859-1"?>
<!-- Generator: Adobe Illustrator 19.0.0, SVG Export Plug-In . SVG Version: 6.00 Build 0)  -->
<svg version="1.1" id="Capa_1" xmlns="http://www.w3.org/2000/svg" xmlns:xlink="http://www.w3.org/1999/xlink" x="0px" y="0px"
	 viewBox="0 0 511.947 511.947" style="enable-background:new 0 0 511.947 511.947;" xml:space="preserve" stroke='white' fill='white'>
<g>
	<g>
		<g>
			<path d="M511.454,212.092c-2.003-12.576-9.934-23.42-21.311-29.14c4.642-12.425,8.85-25.225,12.533-38.167
				c0.265-0.971,0.327-1.987,0.183-2.983c11.064-38.966,0.143-80.867-28.533-109.475c-45.392-43.764-117.51-42.981-161.942,1.758
				c-11.721,11.582-20.85,25.519-26.783,40.892c-0.494,1.069-0.79,2.218-0.875,3.392c-1.2,4.992-2.567,10.3-4.4,15.617l0.033,0.008
				c-0.129,0.377-0.234,0.761-0.317,1.15c-13.65,42.9-37.534,81.834-69.592,113.442c-32.053,31.895-71.337,55.575-114.508,69.025
				c-0.37,0.076-0.735,0.176-1.092,0.3l-0.017-0.033c-5.533,1.867-11.034,3.258-15.792,4.375c-1.168,0.078-2.312,0.369-3.375,0.858
				c-15.452,5.846-29.497,14.888-41.216,26.533c-22.036,21.597-34.453,51.154-34.45,82.008
				c-0.133,29.574,11.644,57.957,32.675,78.75c27.598,26.95,66.958,38.105,104.592,29.642c5.605,7.484,14.408,11.89,23.758,11.892
				c15.728,0.006,28.662-12.394,29.317-28.108c18.419-6.935,36.409-14.96,53.875-24.033c12.894,12.341,32.375,14.719,47.858,5.842
				c16.2-9.344,23.673-28.734,17.933-46.533c21.498-15.587,41.761-32.81,60.608-51.517c5.875-5.825,11.683-11.858,17.317-17.983
				c16.745,8.01,36.797,3.5,48.5-10.908c11.913-14.691,11.732-35.767-0.433-50.25c7.283-10.825,14.234-22.05,20.733-33.5
				c14.909,6.096,32.015,2.742,43.517-8.533C509.288,237.439,513.457,224.667,511.454,212.092z M488.235,234.294
				c-8.041,7.903-20.617,8.833-29.733,2.2c-1.985-1.464-4.505-1.999-6.914-1.467c-2.408,0.532-4.469,2.079-5.653,4.242
				c-8.536,15.623-17.894,30.783-28.033,45.417c-2.576,3.709-1.816,8.783,1.733,11.575c4.726,3.711,7.76,9.168,8.417,15.141
				c0.657,5.973-1.118,11.959-4.925,16.609c-7.811,9.58-21.793,11.283-31.675,3.858c-3.544-2.656-8.53-2.168-11.492,1.125
				c-6.867,7.675-14.05,15.233-21.358,22.475c-19.815,19.673-41.252,37.642-64.083,53.717c-3.593,2.528-4.681,7.369-2.517,11.192
				c6.013,10.759,2.24,24.354-8.458,30.475l-0.017,0.017c-10.302,5.91-23.408,3.024-30.275-6.667
				c-2.48-3.555-7.227-4.694-11.05-2.65c-20.55,11.046-41.882,20.572-63.825,28.5c-4.083,1.472-6.409,5.778-5.4,10
				c1.424,6.248-2.271,12.522-8.425,14.308c-6.143,1.864-12.691-1.272-15.092-7.225c-1.578-4.107-6.022-6.338-10.258-5.15
				c-33.474,9.624-69.537,0.58-94.509-23.7c-17.786-17.598-27.742-41.613-27.625-66.634c0.012-26.301,10.608-51.491,29.4-69.892
				c9.907-9.853,21.763-17.528,34.808-22.533c0.2-0.025,0.4-0.067,0.592-0.108c5.142-1.2,11.208-2.692,17.517-4.767
				c0.347-0.064,0.689-0.151,1.025-0.258c46.027-14.223,87.913-39.408,122.058-73.392c34.187-33.711,59.611-75.271,74.058-121.058
				c0.109-0.347,0.198-0.701,0.267-1.058c2.033-6.05,3.5-11.892,4.783-17.325c0.05-0.2,0.092-0.4,0.125-0.6
				c5.069-12.95,12.803-24.689,22.7-34.458c37.765-38.175,99.183-38.958,137.908-1.758c24.963,24.969,33.957,61.754,23.333,95.425
				c-0.303,1.027-0.38,2.107-0.225,3.167c-4.15,14.258-8.958,28.308-14.291,41.808c-0.918,2.319-0.776,4.923,0.389,7.128
				c1.165,2.205,3.237,3.79,5.67,4.338c8.076,1.737,14.548,7.764,16.855,15.696C496.348,219.938,494.119,228.496,488.235,234.294z"
				/>
			<path d="M406.817,88.903c-2.941,0.801-5.232,3.111-6.008,6.058c-0.777,2.948,0.078,6.086,2.243,8.233
				c5.252,5.188,8.208,12.263,8.208,19.646c0,7.383-2.956,14.458-8.208,19.646c-1.607,1.593-2.516,3.76-2.525,6.023
				c-0.009,2.263,0.881,4.437,2.475,6.044c1.593,1.607,3.76,2.516,6.023,2.525c2.263,0.009,4.437-0.881,6.044-2.475
				c8.484-8.392,13.258-19.829,13.258-31.763s-4.774-23.371-13.258-31.763C412.903,88.931,409.758,88.102,406.817,88.903z"/>
			<path d="M342.393,201.144c3.458,0,6.573-2.087,7.89-5.284s0.573-6.873-1.881-9.308c-5.257-5.185-8.217-12.262-8.217-19.646
				s2.959-14.46,8.217-19.646c2.164-2.147,3.019-5.285,2.242-8.233c-0.777-2.948-3.067-5.257-6.008-6.058
				c-2.941-0.801-6.086,0.028-8.251,2.174c-8.489,8.389-13.267,19.828-13.267,31.763c0,11.935,4.778,23.373,13.267,31.763
				C337.981,200.255,340.142,201.145,342.393,201.144z"/>
			<path d="M134.81,337.202c-3.346,3.318-3.368,8.721-0.05,12.067s8.721,3.368,12.067,0.05h0c11.048-10.883,28.786-10.883,39.834,0
				c3.346,3.318,8.748,3.296,12.067-0.05s3.296-8.748-0.05-12.067C180.97,319.736,152.516,319.736,134.81,337.202z"/>
			<path d="M139.993,405.319c-11.051,10.883-28.791,10.883-39.842,0c-3.346-3.318-8.748-3.296-12.067,0.05
				c-3.318,3.346-3.296,8.748,0.05,12.067c8.497,8.416,19.982,13.123,31.942,13.092c11.957,0.03,23.438-4.677,31.933-13.092
				c3.346-3.318,3.368-8.721,0.05-12.067C148.741,402.023,143.339,402,139.993,405.319z"/>
			<path d="M379.151,234.111c-4.713,0-8.533,3.82-8.533,8.533c-0.102,15.445-12.688,27.893-28.133,27.825
				c-2.264-0.001-4.435,0.897-6.035,2.498c-1.601,1.601-2.499,3.772-2.498,6.035c-0.001,2.264,0.897,4.435,2.498,6.035
				s3.772,2.499,6.035,2.498c24.866,0.056,45.086-20.026,45.2-44.892C387.685,237.931,383.864,234.111,379.151,234.111z"/>
			<path d="M279.243,238.977c-4.713,0-8.533,3.821-8.533,8.533c-0.103,15.444-12.689,27.889-28.133,27.817
				c-4.713,0-8.533,3.82-8.533,8.533s3.82,8.533,8.533,8.533c24.865,0.06,45.085-20.019,45.2-44.883
				C287.776,242.798,283.956,238.977,279.243,238.977z"/>
			<path d="M279.051,312.969c-4.713,0-8.533,3.82-8.533,8.533c-0.102,15.441-12.684,27.885-28.125,27.817
				c-4.713,0-8.533,3.82-8.533,8.533s3.82,8.533,8.533,8.533c24.862,0.056,45.078-20.022,45.192-44.883
				C287.585,316.789,283.764,312.969,279.051,312.969z"/>
		</g>
	</g>
</g>
<g>
</g>
<g>
</g>
<g>
</g>
<g>
</g>
<g>
</g>
<g>
</g>
<g>
</g>
<g>
</g>
<g>
</g>
<g>
</g>
<g>
</g>
<g>
</g>
<g>
</g>
<g>
</g>
<g>
</g>
</svg>
